<svg width="42" height="42" viewBox="0 0 42 42" fill="none" xmlns="http://www.w3.org/2000/svg">
<path d="M38.8186 3.18148C37.4119 1.77484 35.5415 1.00016 33.5521 1.00016L8.44797 1C4.34109 1.00023 1 4.34141 1.00008 8.44797L1 33.5522C1.00008 37.6589 4.34125 41 8.44805 41H33.5521C37.6589 41 41 37.6589 41 33.5521V8.44805C41 6.45859 40.2253 4.5882 38.8186 3.18148ZM38.6562 33.5521C38.6562 36.3666 36.3666 38.6562 33.5521 38.6562H8.44805C5.63359 38.6562 3.34383 36.3665 3.34375 33.5521L3.34383 8.44789C3.34375 5.63359 5.63352 3.34391 8.44805 3.34375L33.5521 3.34391C34.9155 3.34391 36.1973 3.87477 37.1613 4.83875C38.1254 5.80281 38.6562 7.08461 38.6562 8.44805V33.5521Z" fill="white" stroke="#8C1E82"/>
<path d="M28.0413 17.9921C27.5837 17.5345 26.8417 17.5344 26.384 17.9921L22.1717 22.2045L22.1716 9.70361C22.1716 9.05643 21.6469 8.53174 20.9997 8.53174C20.3525 8.53174 19.8278 9.05643 19.8278 9.70361L19.8279 22.2048L15.6153 17.9922C15.1577 17.5346 14.4156 17.5346 13.958 17.9922C13.5003 18.4499 13.5003 19.1918 13.958 19.6495L20.1711 25.8624C20.3909 26.0823 20.6889 26.2057 20.9997 26.2057C21.3105 26.2057 21.6086 26.0822 21.8284 25.8624L28.0413 19.6493C28.4989 19.1917 28.4989 18.4497 28.0413 17.9921Z" fill="white" stroke="#8C1E82"/>
<path d="M32.2974 31.1245H9.70361C9.05643 31.1245 8.53174 31.6492 8.53174 32.2964C8.53174 32.9436 9.05643 33.4683 9.70361 33.4683H32.2974C32.9445 33.4683 33.4692 32.9436 33.4692 32.2964C33.4692 31.6491 32.9445 31.1245 32.2974 31.1245Z" fill="white" stroke="#8C1E82"/>
</svg>
