<svg width="70" height="70" viewBox="0 0 70 70" fill="none" xmlns="http://www.w3.org/2000/svg">
<path d="M41.4294 32.9666C41.0441 32.5813 40.4192 32.5812 40.0338 32.9666L36.4866 36.5139L36.4865 25.9868C36.4865 25.4418 36.0447 25 35.4997 25C34.9547 25 34.5128 25.4418 34.5128 25.9868L34.5129 36.5141L30.9654 32.9667C30.5801 32.5813 29.9552 32.5813 29.5698 32.9667C29.1844 33.3521 29.1844 33.9769 29.5698 34.3623L34.8019 39.5943C34.987 39.7794 35.238 39.8834 35.4997 39.8834C35.7614 39.8834 36.0124 39.7793 36.1975 39.5943L41.4295 34.3622C41.8148 33.9768 41.8148 33.352 41.4294 32.9666Z" fill="white"/>
<path d="M45.0132 44.0254H25.9868C25.4418 44.0254 25 44.4672 25 45.0122C25 45.5572 25.4418 45.9991 25.9868 45.9991H45.0132C45.5582 45.9991 46 45.5572 46 45.0122C46 44.4672 45.5582 44.0254 45.0132 44.0254Z" fill="white"/>
</svg>
