<svg width="17" height="17" viewBox="0 0 17 17" fill="none" xmlns="http://www.w3.org/2000/svg">
<path d="M13.3 6.44914C12.988 6.1372 12.4822 6.13715 12.1702 6.44914L9.29862 9.32082L9.29856 0.798872C9.29856 0.357682 8.94088 0 8.49969 0C8.0585 0 7.70082 0.357682 7.70082 0.798872L7.70087 9.32098L4.82909 6.44924C4.51715 6.13726 4.01131 6.13726 3.69932 6.44924C3.38734 6.76123 3.38734 7.26702 3.69932 7.57901L7.93484 11.8144C8.08465 11.9643 8.28783 12.0484 8.49969 12.0484C8.71155 12.0484 8.91478 11.9642 9.0646 11.8144L13.3 7.5789C13.6119 7.26691 13.6119 6.76112 13.3 6.44914Z" fill="white"/>
<path d="M16.2011 15.4014H0.798872C0.357682 15.4014 0 15.759 0 16.2002C0 16.6414 0.357682 16.9991 0.798872 16.9991H16.2011C16.6423 16.9991 17 16.6414 17 16.2002C17 15.759 16.6423 15.4014 16.2011 15.4014Z" fill="white"/>
</svg>
