<svg width="70" height="70" viewBox="0 0 70 70" fill="none" xmlns="http://www.w3.org/2000/svg">
<path d="M34.248 25C29.1488 25 25 29.1488 25 34.248C25 39.3474 29.1488 43.4959 34.248 43.4959C39.3474 43.4959 43.4959 39.3474 43.4959 34.248C43.4959 29.1488 39.3474 25 34.248 25ZM34.248 41.7886C30.0901 41.7886 26.7073 38.4059 26.7073 34.248C26.7073 30.0901 30.0901 26.7073 34.248 26.7073C38.4058 26.7073 41.7886 30.0901 41.7886 34.248C41.7886 38.4058 38.4058 41.7886 34.248 41.7886Z" fill="white"/>
<path d="M45.75 44.5429L40.8557 39.6486C40.5222 39.3151 39.9821 39.3151 39.6486 39.6486C39.3151 39.9818 39.3151 40.5224 39.6486 40.8557L44.5429 45.75C44.7096 45.9167 44.9279 46.0001 45.1464 46.0001C45.3647 46.0001 45.5832 45.9167 45.75 45.75C46.0835 45.4168 46.0835 44.8761 45.75 44.5429Z" fill="white"/>
</svg>
